<svg width="16" height="16" viewBox="0 0 16 16" fill="none" xmlns="http://www.w3.org/2000/svg">
<path d="M15.125 3.5C15.125 3.6837 15.0575 3.861 14.9355 3.99828C14.8134 4.13556 14.6452 4.22326 14.4628 4.24475L14.375 4.25H13.7413L12.818 13.64C12.7677 14.1495 12.5298 14.6221 12.1503 14.9659C11.7709 15.3097 11.2772 15.5001 10.7653 15.5H5.23475C4.72276 15.5001 4.22906 15.3097 3.84965 14.9659C3.47025 14.6221 3.23227 14.1495 3.182 13.64L2.25875 4.25H1.625C1.42609 4.25 1.23532 4.17098 1.09467 4.03033C0.954018 3.88968 0.875 3.69891 0.875 3.5C0.875 3.30109 0.954018 3.11032 1.09467 2.96967C1.23532 2.82902 1.42609 2.75 1.625 2.75H5.375C5.375 2.40528 5.4429 2.06394 5.57482 1.74546C5.70673 1.42698 5.90009 1.1376 6.14384 0.893845C6.3876 0.650091 6.67698 0.456735 6.99546 0.324816C7.31394 0.192898 7.65528 0.125 8 0.125C8.34472 0.125 8.68606 0.192898 9.00454 0.324816C9.32302 0.456735 9.6124 0.650091 9.85616 0.893845C10.0999 1.1376 10.2933 1.42698 10.4252 1.74546C10.5571 2.06394 10.625 2.40528 10.625 2.75H14.375C14.5739 2.75 14.7647 2.82902 14.9053 2.96967C15.046 3.11032 15.125 3.30109 15.125 3.5ZM9.6875 5.9375C9.55157 5.93751 9.42024 5.98673 9.3178 6.07608C9.21536 6.16542 9.14874 6.28883 9.13025 6.4235L9.125 6.5V11.75L9.13025 11.8265C9.14877 11.9611 9.21542 12.0845 9.31785 12.1738C9.42029 12.2631 9.5516 12.3123 9.6875 12.3123C9.8234 12.3123 9.95471 12.2631 10.0571 12.1738C10.1596 12.0845 10.2262 11.9611 10.2448 11.8265L10.25 11.75V6.5L10.2448 6.4235C10.2263 6.28883 10.1596 6.16542 10.0572 6.07608C9.95476 5.98673 9.82343 5.93751 9.6875 5.9375ZM6.3125 5.9375C6.17657 5.93751 6.04524 5.98673 5.9428 6.07608C5.84036 6.16542 5.77374 6.28883 5.75525 6.4235L5.75 6.5V11.75L5.75525 11.8265C5.77377 11.9611 5.84042 12.0845 5.94285 12.1738C6.04529 12.2631 6.1766 12.3123 6.3125 12.3123C6.4484 12.3123 6.57971 12.2631 6.68215 12.1738C6.78458 12.0845 6.85123 11.9611 6.86975 11.8265L6.875 11.75V6.5L6.86975 6.4235C6.85126 6.28883 6.78464 6.16542 6.6822 6.07608C6.57976 5.98673 6.44843 5.93751 6.3125 5.9375ZM8 1.625C7.70163 1.625 7.41548 1.74353 7.2045 1.95451C6.99353 2.16548 6.875 2.45163 6.875 2.75H9.125C9.125 2.45163 9.00647 2.16548 8.7955 1.95451C8.58452 1.74353 8.29837 1.625 8 1.625Z" fill="#F21212"/>
</svg>
